# xmcd
# Track frame offsets:
# 182
# 12417
# 23945
# 36497
# 50112
# 60522
# 77907
# 89747
# 102470
# 115995
#
# Disc length: 1668 seconds
# Revision: 0
# Processed by: cddbd v1.4PL0 Copyright (c) Steve Scherf et al.
# Submitted via: VisiTrax 2.9.3.171 - For more info visit www.synapsa.com
#
DISCID=8c06820a
DTITLE=Jerry Lee Colbert - Forgive Me
DYEAR=1900
DGENRE=
TTITLE0=Z-28
TTITLE1=Heartbreak Crusade
TTITLE2=Caribbean Blue
TTITLE3=Forgive Me
TTITLE4=Someday
TTITLE5=Does She Still Mention My Name
TTITLE6=I've Been Rockin'
TTITLE7=I Used To Belive In Love
TTITLE8=Dream Girl
TTITLE9=Jack Daniels Took My Body Out
EXTD=
EXTT0=
EXTT1=
EXTT2=
EXTT3=
EXTT4=
EXTT5=
EXTT6=
EXTT7=
EXTT8=
EXTT9=
PLAYORDER=
